<svg xmlns="http://www.w3.org/2000/svg" viewBox="0 0 100 100">
  <rect width="100" height="100" rx="15" fill="#0f172a"/>
  <rect x="15" y="15" width="70" height="70" rx="8" fill="#1e293b" stroke="#06b6d4" stroke-width="2"/>
  <g fill="#06b6d4">
    <rect x="25" y="25" width="8" height="8"/>
    <rect x="37" y="25" width="8" height="8"/>
    <rect x="55" y="25" width="8" height="8"/>
    <rect x="67" y="25" width="8" height="8"/>
    <rect x="31" y="37" width="8" height="8"/>
    <rect x="49" y="37" width="8" height="8"/>
    <rect x="61" y="37" width="8" height="8"/>
    <rect x="25" y="49" width="8" height="8"/>
    <rect x="43" y="49" width="8" height="8"/>
    <rect x="67" y="49" width="8" height="8"/>
    <rect x="37" y="61" width="8" height="8"/>
    <rect x="55" y="61" width="8" height="8"/>
    <rect x="25" y="67" width="8" height="8"/>
    <rect x="49" y="67" width="8" height="8"/>
    <rect x="67" y="67" width="8" height="8"/>
  </g>
</svg>
